<svg width="30" height="30" viewBox="0 0 30 30" fill="none" xmlns="http://www.w3.org/2000/svg">
<g clip-path="url(#clip0_97_771)">
<path d="M0 14.375C0 7.599 0 4.21 2.105 2.105C4.21 0 7.6 0 14.375 0H15.625C22.401 0 25.79 0 27.895 2.105C30 4.21 30 7.6 30 14.375V15.625C30 22.401 30 25.79 27.895 27.895C25.79 30 22.4 30 15.625 30H14.375C7.599 30 4.21 30 2.105 27.895C0 25.79 0 22.4 0 15.625V14.375Z" fill="white"/>
<path fill-rule="evenodd" clip-rule="evenodd" d="M8.12499 9.375H5.93799C5.31299 9.375 5.18799 9.669 5.18799 9.994C5.18799 10.573 5.92899 13.447 8.64099 17.247C10.448 19.843 12.995 21.25 15.312 21.25C16.703 21.25 16.875 20.937 16.875 20.4V18.438C16.875 17.813 17.007 17.688 17.447 17.688C17.772 17.688 18.327 17.85 19.626 19.101C21.109 20.585 21.353 21.25 22.187 21.25H24.375C25 21.25 25.313 20.937 25.132 20.32C24.935 19.706 24.227 18.814 23.287 17.757C22.777 17.155 22.013 16.506 21.781 16.181C21.456 15.764 21.549 15.579 21.781 15.208C21.781 15.208 24.446 11.454 24.724 10.179C24.864 9.716 24.724 9.375 24.062 9.375H21.875C21.319 9.375 21.062 9.669 20.923 9.994C20.923 9.994 19.811 12.705 18.235 14.466C17.725 14.976 17.493 15.139 17.215 15.139C17.076 15.139 16.875 14.976 16.875 14.513V10.179C16.875 9.623 16.714 9.375 16.25 9.375H12.812C12.465 9.375 12.256 9.633 12.256 9.878C12.256 10.405 13.044 10.527 13.125 12.01V15.231C13.125 15.938 12.998 16.066 12.719 16.066C11.978 16.066 10.174 13.342 9.10399 10.226C8.89399 9.62 8.68399 9.375 8.12499 9.375Z" fill="#2787F5"/>
</g>
<defs>
<clipPath id="clip0_97_771">
<rect width="30" height="30" fill="white"/>
</clipPath>
</defs>
</svg>
