<svg width="24" height="24" viewBox="0 0 24 24" fill="none" xmlns="http://www.w3.org/2000/svg">
<path d="M24 2.57769C23.9542 3.00344 23.9016 3.42857 23.8634 3.85495C23.7169 5.49536 23.648 7.1464 23.4157 8.77491C22.9109 12.3118 20.9476 14.7449 17.6253 16.0716C17.356 16.1745 17.0798 16.2582 16.7986 16.322C16.5268 16.3846 16.2469 16.4228 15.9645 16.4723C15.8937 16.9181 15.8455 17.3833 15.744 17.8366C15.2349 20.1031 14.0356 21.9188 12.1368 23.2618C11.2181 23.9136 10.1866 24.1121 9.08442 23.9424C5.98278 23.4653 3.70029 21.8374 2.23694 19.0587C1.77915 18.1866 1.56371 17.233 1.31071 16.2926C0.893203 14.7419 0.477577 13.1904 0.0638311 11.6381C-0.0820865 11.0934 0.00684254 10.8711 0.485302 10.5894C2.93027 9.14864 5.60534 8.14003 8.39303 7.60785C8.95666 7.49765 8.95291 7.4964 9.00175 6.93478C9.16875 4.9905 9.33951 3.04644 9.51403 1.10258C9.54597 0.745696 9.76078 0.497756 10.134 0.44078C10.9738 0.313054 11.818 0.202233 12.6647 0.0932905C13.0042 0.050089 13.3461 0.0306793 13.6874 0H15.8411C15.916 0.0171312 15.992 0.0296771 16.0684 0.0375669C18.5533 0.168131 21.0039 0.674781 23.3367 1.54023C23.6374 1.65105 23.8766 1.80382 24 2.10748V2.57769ZM12.825 8.54263C11.86 8.62214 10.9143 8.66284 9.97934 8.78368C7.07581 9.15612 4.27007 10.0792 1.71276 11.5035C1.54868 11.5943 1.52489 11.675 1.57248 11.8504C2.03278 13.5352 2.46176 15.2313 2.93897 16.9093C3.83076 20.0524 5.90554 21.9182 9.1126 22.5255C9.88477 22.672 10.6156 22.5881 11.2901 22.1411C13.7093 20.5364 15.0213 17.3645 14.3995 14.5257C14.1489 13.3843 13.8158 12.2611 13.5171 11.1303C13.2941 10.2826 13.0655 9.43984 12.825 8.54263ZM15.9682 15.0448C16.0835 15.0279 16.2381 15.016 16.3884 14.9822C19.3268 14.3216 21.7623 11.5561 22.0329 8.57393C22.2026 6.69999 22.3661 4.82542 22.5389 2.95148C22.5533 2.79558 22.507 2.72921 22.361 2.68726C21.6941 2.49504 21.0359 2.27027 20.3639 2.09997C17.989 1.4983 15.5324 1.28475 13.0893 1.4676C12.3516 1.52144 11.6189 1.62788 10.873 1.71303C10.7083 3.59825 10.5467 5.44464 10.3852 7.29855C10.4816 7.29855 10.543 7.29855 10.6037 7.29855C11.493 7.25848 12.3823 7.20964 13.2716 7.18084C13.73 7.16581 13.9604 7.35365 14.0819 7.79944C14.1715 8.12251 14.2554 8.44683 14.3425 8.77053L14.794 10.4429L14.9293 10.4203C16.364 10.1924 17.5846 10.5975 18.5728 11.6663C18.6779 11.78 18.7529 11.9182 18.7908 12.0682C18.8255 12.2183 18.8075 12.3757 18.7399 12.5141C18.6723 12.6525 18.5591 12.7635 18.4194 12.8283C18.282 12.8984 18.1249 12.9199 17.9737 12.8892C17.8225 12.8584 17.6863 12.7774 17.5871 12.6593C17.2456 12.2577 16.7885 11.9713 16.2782 11.8391C15.9131 11.7483 15.5455 11.7201 15.1829 11.8165C15.4447 12.8935 15.7008 13.9453 15.9682 15.0448Z" fill="#7A7074"/>
<path d="M8.95415 20.3793C8.18574 20.3592 7.56386 20.2033 6.98771 19.8783C6.61196 19.6666 6.47293 19.257 6.66393 18.9044C6.70837 18.8213 6.76923 18.7481 6.84282 18.6893C6.9164 18.6304 7.00118 18.5871 7.09201 18.5619C7.18285 18.5368 7.27783 18.5304 7.37122 18.5431C7.4646 18.5558 7.55443 18.5873 7.63526 18.6358C8.20971 18.9584 8.88739 19.0442 9.52411 18.8748C10.1608 18.7055 10.7063 18.2944 11.0446 17.729C11.2663 17.3532 11.699 17.2637 12.0366 17.4785C12.3641 17.6895 12.4549 18.1047 12.2326 18.4667C11.4542 19.7261 10.3056 20.3317 8.95415 20.3793Z" fill="#7A7074"/>
<path d="M3.56714 14.7139C3.61098 14.5887 3.63665 14.4584 3.70053 14.3476C4.32679 13.2623 5.76279 12.8733 6.85937 13.4871C7.22572 13.6919 7.35661 14.0902 7.17249 14.444C6.99714 14.7834 6.59822 14.9093 6.22747 14.7421C5.64067 14.4778 5.25803 14.5818 4.87476 15.1091C4.67436 15.384 4.37376 15.4911 4.07566 15.3928C3.93188 15.3448 3.80616 15.2541 3.71529 15.1328C3.62442 15.0115 3.57274 14.8654 3.56714 14.7139Z" fill="#7A7074"/>
<path d="M9.00488 13.23C9.03933 13.1122 9.08331 12.9974 9.1364 12.8868C9.76265 11.8021 11.203 11.4145 12.2965 12.0295C12.6616 12.2343 12.7919 12.6357 12.6096 12.987C12.4305 13.3252 12.0322 13.4492 11.6627 13.2814C11.0759 13.0171 10.6964 13.121 10.31 13.6496C10.1046 13.9314 9.79459 14.0347 9.48773 13.9239C9.34604 13.8713 9.22383 13.7767 9.13751 13.6526C9.0512 13.5286 9.00491 13.3811 9.00488 13.23Z" fill="#7A7074"/>
<path d="M13.7206 6.41558C13.0198 6.39178 12.4217 6.13501 11.9514 5.60144C11.6852 5.29959 11.6953 4.87499 11.9708 4.61071C12.257 4.33578 12.6791 4.35018 12.9766 4.64452C13.4225 5.0829 13.8477 5.12424 14.3543 4.76978C14.6969 4.53242 15.1259 4.58691 15.3563 4.89503C15.5868 5.20314 15.5254 5.63276 15.1985 5.89203C14.7785 6.22736 14.258 6.41175 13.7206 6.41558Z" fill="#7A7074"/>
<path d="M19.1295 6.89455C18.6329 6.88265 18.0486 6.63215 17.5814 6.12175C17.2877 5.8011 17.2908 5.37024 17.5814 5.09594C17.872 4.82164 18.2972 4.84982 18.6041 5.15857C19.0112 5.56751 19.4702 5.60571 19.9493 5.27067C20.31 5.02016 20.7302 5.07089 20.9651 5.39592C21.1999 5.72094 21.1223 6.14054 20.7772 6.40544C20.3545 6.7336 19.8579 6.90018 19.1295 6.89455Z" fill="#7A7074"/>
</svg>
