<svg width="29" height="36" viewBox="0 0 29 36" fill="none" xmlns="http://www.w3.org/2000/svg">
<path d="M14.5 36C16.4937 36 18.125 34.3385 18.125 32.3077H10.875C10.875 34.3385 12.5063 36 14.5 36ZM25.375 24.9231V15.6923C25.375 10.0246 22.4206 5.28 17.2188 4.02462V2.76923C17.2188 1.23692 16.0044 0 14.5 0C12.9956 0 11.7812 1.23692 11.7812 2.76923V4.02462C6.5975 5.28 3.625 10.0062 3.625 15.6923V24.9231L0 28.6154V30.4615H29V28.6154L25.375 24.9231ZM21.75 26.7692H7.25V15.6923C7.25 11.1138 9.98687 7.38462 14.5 7.38462C19.0131 7.38462 21.75 11.1138 21.75 15.6923V26.7692Z" fill="#7A7074"/>
</svg>
