<svg width="20" height="20" viewBox="0 0 20 20" fill="none" xmlns="http://www.w3.org/2000/svg">
<path d="M14.1909 20C14.135 19.9708 14.0777 19.9444 14.0192 19.9209C12.4012 19.3648 10.7824 18.8093 9.16284 18.2544C9.10385 18.2343 9.04485 18.2125 8.96875 18.1848C9.0242 18.1258 9.0655 18.0762 9.11034 18.0314C10.5431 16.5978 11.9753 15.1639 13.4068 13.7296C13.5177 13.6181 13.6086 13.5921 13.7608 13.6434C15.4008 14.196 17.0426 14.7445 18.6862 15.2888C18.7679 15.3164 18.8432 15.3604 18.9074 15.418C18.8429 15.4487 18.7822 15.4867 18.7263 15.5312C17.2868 16.9671 15.8488 18.4044 14.4121 19.8431C14.3625 19.8932 14.3165 19.9475 14.2687 20H14.1909ZM12.3302 18.829C12.6476 18.7836 12.9502 18.6685 13.1561 18.3753C13.3838 18.0479 13.2304 17.7217 12.8322 17.7081C12.6629 17.7 12.4941 17.7334 12.3406 17.8053C12.1871 17.8773 12.0535 17.9857 11.9515 18.1211C11.8388 18.2632 11.7662 18.4272 11.8618 18.6072C11.9574 18.7871 12.1284 18.8154 12.3302 18.829ZM15.5318 14.9283C15.1943 14.9673 14.8787 15.0965 14.6752 15.418C14.49 15.7088 14.6091 15.9896 14.9495 16.0362C15.3401 16.0905 15.6574 15.9318 15.9046 15.6315C16.0226 15.4905 16.0816 15.323 15.989 15.1448C15.8964 14.9667 15.7324 14.9437 15.5324 14.9283H15.5318ZM16.8332 16.6138C17.1512 16.5689 17.475 16.4421 17.6697 16.1017C17.8319 15.8191 17.7098 15.5584 17.3895 15.5118C16.9966 15.4528 16.6816 15.6132 16.4308 15.9082C16.3129 16.0457 16.2427 16.2108 16.3365 16.3931C16.4303 16.5754 16.5996 16.6067 16.8332 16.6138ZM14.0546 19.3865C14.3796 19.3475 14.6947 19.2166 14.8911 18.8886C15.0681 18.5936 14.9348 18.3199 14.5961 18.2827C14.2198 18.2414 13.9106 18.3883 13.67 18.6715C13.552 18.8089 13.477 18.9706 13.5614 19.1546C13.6481 19.3452 13.8263 19.3776 14.0575 19.3835L14.0546 19.3865ZM13.4446 15.4492C13.7561 15.4068 14.0752 15.2687 14.2617 14.926C14.4127 14.6463 14.267 14.3809 13.9496 14.349C13.5821 14.3118 13.2765 14.4481 13.0352 14.7213C12.906 14.8676 12.8204 15.0422 12.9172 15.2369C13.0134 15.4197 13.195 15.4516 13.4446 15.4463V15.4492ZM10.6282 18.2219C10.961 18.1901 11.286 18.052 11.4831 17.7069C11.6447 17.4226 11.4984 17.1453 11.1733 17.117C10.995 17.0981 10.8149 17.1258 10.6505 17.1973C10.4861 17.2689 10.343 17.3819 10.2353 17.5252C10.1221 17.6656 10.0531 17.8326 10.1486 18.0113C10.2383 18.1795 10.4035 18.216 10.6282 18.2219Z" fill="#1E1509"/>
<path d="M11.3332 7.8019C11.6217 8.66615 11.9025 9.50858 12.1833 10.351C12.4747 11.2241 12.7644 12.0984 13.0594 12.9703C13.0965 13.0801 13.093 13.1538 13.0033 13.2429C11.5395 14.7008 10.0778 16.1609 8.61834 17.6232C8.58707 17.6544 8.55227 17.6821 8.50035 17.7246C8.32337 17.2002 8.14639 16.6922 7.97236 16.1837C7.56215 14.9873 7.15156 13.7913 6.74057 12.5957C6.70222 12.486 6.70459 12.4117 6.79426 12.3226C8.27657 10.8466 9.75672 9.36838 11.2347 7.88803C11.2607 7.86443 11.2848 7.84496 11.3332 7.8019ZM10.1003 10.1616C10.1003 10.5917 10.3616 10.7876 10.6778 10.6418C10.994 10.4961 11.2677 9.99292 11.2152 9.63896C11.1562 9.27084 10.8719 9.14282 10.561 9.35284C10.2501 9.56286 10.1392 9.86195 10.1003 10.1616ZM9.66783 15.3177C9.67845 14.851 9.41121 14.6475 9.08144 14.8103C8.75166 14.9732 8.5033 15.4593 8.56347 15.8227C8.62247 16.1636 8.87909 16.2917 9.17583 16.1176C9.49734 15.9235 9.62418 15.6126 9.66783 15.3177Z" fill="#1E1509"/>
<path d="M1.06238 3.04583C1.13317 3.07651 1.19216 3.09893 1.24821 3.12725C2.80288 3.90399 4.35776 4.68016 5.91283 5.45573C6.03966 5.51885 6.08981 5.58669 6.08981 5.73299C6.0843 7.74664 6.08312 9.7599 6.08627 11.7728C6.08627 12.0459 6.07624 12.0518 5.82906 11.9309C4.29169 11.1777 2.75411 10.4248 1.21635 9.672C1.11783 9.62421 1.05117 9.58232 1.05176 9.44782C1.05687 7.35001 1.05825 5.2522 1.05589 3.15439C1.05471 3.12371 1.05884 3.09303 1.06238 3.04583ZM4.10762 7.57772C4.07223 7.21786 3.97371 6.90166 3.66399 6.69931C3.43333 6.5477 3.19913 6.6297 3.09471 6.88278C2.94487 7.24795 3.14013 7.83435 3.47817 8.03551C3.72476 8.18241 3.95838 8.10276 4.05395 7.83257C4.07784 7.749 4.09578 7.66384 4.10762 7.57772ZM5.66034 10.4796C5.61727 10.1186 5.52524 9.81181 5.23735 9.60887C5.00138 9.44074 4.75773 9.51094 4.64742 9.76579C4.48577 10.1375 4.69579 10.7522 5.05093 10.9457C5.2698 11.0637 5.48276 10.9993 5.58187 10.7687C5.61576 10.6746 5.642 10.5779 5.66034 10.4796ZM2.50536 5.1112C2.50536 4.72361 2.34077 4.36493 2.10833 4.20388C1.86292 4.0328 1.61633 4.09828 1.50483 4.36376C1.34968 4.73188 1.55262 5.33125 1.89891 5.52829C2.12839 5.65925 2.3567 5.58374 2.45345 5.33715C2.47749 5.26334 2.49487 5.18752 2.50536 5.11061V5.1112Z" fill="#1E1509"/>
<path d="M1.45898 2.51254L3.85177 1.31614C4.65821 0.913219 5.46347 0.508526 6.2705 0.11032C6.30518 0.0921694 6.34312 0.0810975 6.38211 0.0777551C6.4211 0.0744128 6.46037 0.0788623 6.49763 0.0908472C8.09517 0.883328 9.69056 1.67974 11.2838 2.48009C11.3023 2.4921 11.3198 2.50551 11.3363 2.52021C11.2773 2.55147 11.2307 2.5792 11.1794 2.60752C9.63648 3.37876 8.09281 4.14843 6.54836 4.91652C6.5079 4.93604 6.46397 4.94734 6.41911 4.94977C6.37425 4.9522 6.32936 4.94572 6.28702 4.93068C4.71386 4.15079 3.1407 3.36597 1.56754 2.57625C1.54335 2.56268 1.51621 2.54557 1.45898 2.51254ZM6.40973 3.06943C6.61149 2.98625 6.81147 2.93847 6.97076 2.83346C7.21145 2.67064 7.20202 2.39455 6.98197 2.20636C6.69113 1.9574 6.10827 1.96153 5.82156 2.21403C5.61155 2.39868 5.6021 2.67241 5.83395 2.82756C5.99913 2.93552 6.20502 2.98507 6.40973 3.06943Z" fill="#1E1509"/>
<path d="M11.9863 7.714L13.3874 8.18182C14.611 8.58887 15.8351 8.99357 17.0562 9.40712C17.1021 9.42273 17.1444 9.4473 17.1806 9.4794C17.2169 9.51151 17.2464 9.5505 17.2674 9.59412C17.8291 11.2514 18.3848 12.9105 18.9346 14.5714C18.9458 14.6062 18.9511 14.6434 18.9659 14.7095C18.7712 14.6463 18.6013 14.5915 18.4349 14.5366C16.9223 14.0324 15.4097 13.5282 13.8971 13.024C13.8449 13.0121 13.7968 12.9864 13.7579 12.9496C13.7189 12.9127 13.6906 12.8661 13.6759 12.8146C13.1336 11.171 12.5873 9.52884 12.0371 7.88803C12.0182 7.84084 12.0076 7.79187 11.9863 7.714ZM16.2339 11.3551C16.2339 10.951 15.7896 10.4961 15.3838 10.4891C15.1183 10.4843 14.9508 10.666 14.9708 10.9368C15.0021 11.3279 15.4198 11.7338 15.8115 11.7521C16.0675 11.7639 16.2333 11.6082 16.2345 11.3551H16.2339Z" fill="#1E1509"/>
<path d="M11.7434 3.05056V7.08336C11.5906 7.03263 11.4531 6.99782 11.3251 6.94177C11.1971 6.88573 11.1168 6.91817 11.0213 7.01433C10.1246 7.9189 9.22512 8.82013 8.32291 9.71801C8.29039 9.75321 8.25967 9.79003 8.23087 9.82833C8.19489 9.81771 8.17719 9.8183 8.17188 9.81063C7.95714 9.44192 7.67516 9.41301 7.40851 9.75164C7.18964 10.0283 7.09702 10.3416 7.18492 10.7008C7.19156 10.7324 7.19175 10.765 7.18546 10.7966C7.17917 10.8282 7.16655 10.8583 7.14834 10.8849C7.03036 11.0247 6.90293 11.151 6.74542 11.3173C6.73362 11.2224 6.723 11.1769 6.72241 11.1315C6.72241 9.3259 6.72241 7.51991 6.72241 5.71353C6.72241 5.60734 6.74187 5.53655 6.84983 5.48404C8.45328 4.68724 10.0552 3.88728 11.6555 3.08418C11.6842 3.07146 11.7135 3.06024 11.7434 3.05056ZM9.9411 7.26388C9.91986 7.05209 9.89509 6.85092 9.68743 6.74119C9.51045 6.65034 9.35293 6.72231 9.2261 6.84325C8.9388 7.11757 8.82081 7.46033 8.90458 7.84969C8.97951 8.19952 9.29394 8.29509 9.5718 8.06324C9.82193 7.85499 9.90806 7.56946 9.9411 7.26388ZM10.3918 4.97611C10.38 5.28524 10.4909 5.51059 10.6632 5.57076C10.8496 5.63625 11.0803 5.53478 11.236 5.30058C11.4059 5.04454 11.4932 4.76432 11.4224 4.45343C11.3451 4.11658 11.0466 4.00567 10.7735 4.21745C10.5181 4.41744 10.4201 4.70179 10.3918 4.97375V4.97611ZM8.20905 6.27987C8.20905 5.98962 8.09873 5.78609 7.92352 5.72474C7.74831 5.66338 7.53357 5.7507 7.37842 5.97015C7.19672 6.22677 7.10292 6.51171 7.17135 6.83087C7.24804 7.18955 7.56424 7.29928 7.84505 7.06212C8.09519 6.85211 8.18604 6.56658 8.21141 6.27987H8.20905Z" fill="#1E1509"/>
</svg>
