<svg width="131" height="24" viewBox="0 0 131 24" fill="none" xmlns="http://www.w3.org/2000/svg">
<path d="M10.768 15.768H4.432V23H0.848V6.104H4.432V12.984H10.768V6.104H14.352V23H10.768V15.768ZM32.9635 18.872C32.9635 19.512 33.0595 19.992 33.2515 20.312C33.4435 20.6107 33.7742 20.8347 34.2435 20.984L33.4115 23.416C31.6408 23.2027 30.4782 22.424 29.9235 21.08C29.3048 21.848 28.5262 22.4347 27.5875 22.84C26.6702 23.224 25.6568 23.416 24.5475 23.416C22.8408 23.416 21.4862 22.936 20.4835 21.976C19.4808 21.016 18.9795 19.7467 18.9795 18.168C18.9795 16.3973 19.6728 15.032 21.0595 14.072C22.4675 13.112 24.4515 12.632 27.0115 12.632H29.4115V11.544C29.4115 10.4773 29.0915 9.69867 28.4515 9.208C27.8115 8.71733 26.8835 8.472 25.6675 8.472C25.0702 8.472 24.3768 8.54667 23.5875 8.696C22.7982 8.84533 21.9982 9.05867 21.1875 9.336L20.2915 6.808C22.3182 6.04 24.2915 5.656 26.2115 5.656C28.4515 5.656 30.1368 6.14667 31.2675 7.128C32.3982 8.10933 32.9635 9.50667 32.9635 11.32V18.872ZM25.6035 20.792C26.3502 20.792 27.0648 20.6 27.7475 20.216C28.4515 19.832 29.0062 19.2987 29.4115 18.616V14.872H27.4275C25.8062 14.872 24.6222 15.1493 23.8755 15.704C23.1288 16.2373 22.7555 17.016 22.7555 18.04C22.7555 18.936 22.9902 19.6187 23.4595 20.088C23.9502 20.5573 24.6648 20.792 25.6035 20.792ZM43.703 10.392H51.703V13.176H43.703V20.184H53.463V23H39.991V0.919998H53.271L52.855 3.736H43.703V10.392ZM67.2425 23H63.0825L57.0985 6.104H60.9705L65.2265 20.024L69.5465 6.104H73.2265L67.2425 23ZM80.574 15.704C80.6807 17.3467 81.15 18.584 81.982 19.416C82.8353 20.2267 83.902 20.632 85.182 20.632C85.9713 20.632 86.718 20.5147 87.422 20.28C88.1473 20.024 88.8833 19.6507 89.63 19.16L91.166 21.336C90.3767 21.9973 89.4487 22.5093 88.382 22.872C87.3153 23.2347 86.1953 23.416 85.022 23.416C82.4407 23.416 80.4353 22.616 79.006 21.016C77.5767 19.3947 76.862 17.24 76.862 14.552C76.862 12.8667 77.1713 11.352 77.79 10.008C78.4087 8.64267 79.3047 7.576 80.478 6.808C81.6513 6.04 83.0167 5.656 84.574 5.656C86.814 5.656 88.5847 6.41333 89.886 7.928C91.2087 9.42133 91.87 11.48 91.87 14.104C91.87 14.744 91.838 15.2773 91.774 15.704H80.574ZM84.606 8.312C83.454 8.312 82.5153 8.728 81.79 9.56C81.0647 10.392 80.6487 11.6293 80.542 13.272H88.382C88.3393 11.672 87.998 10.4453 87.358 9.592C86.718 8.73867 85.8007 8.312 84.606 8.312ZM96.7855 6.104H99.8895L100.146 8.312C100.85 7.45867 101.671 6.808 102.61 6.36C103.57 5.89067 104.572 5.656 105.618 5.656C107.175 5.656 108.348 6.09333 109.138 6.968C109.927 7.84267 110.322 9.08 110.322 10.68V23H106.738V12.472C106.738 11.4267 106.674 10.6267 106.546 10.072C106.439 9.496 106.215 9.08 105.874 8.824C105.532 8.54667 105.02 8.408 104.338 8.408C103.57 8.408 102.834 8.64267 102.13 9.112C101.447 9.58133 100.86 10.168 100.37 10.872V23H96.7855V6.104ZM130.085 22.104C129.445 22.5093 128.698 22.8293 127.845 23.064C126.992 23.2987 126.096 23.416 125.157 23.416C123.237 23.416 121.754 22.9253 120.709 21.944C119.664 20.9413 119.141 19.5867 119.141 17.88V8.728H115.397V6.104H119.141V2.328L122.725 1.912V6.104H128.453L128.037 8.728H122.725V17.848C122.725 18.7653 122.96 19.448 123.429 19.896C123.898 20.3227 124.645 20.536 125.669 20.536C126.8 20.536 127.845 20.2693 128.805 19.736L130.085 22.104Z" fill="#1E1509"/>
</svg>
